<?xml version="1.0" encoding="UTF-8" standalone="no"?>
<!DOCTYPE svg PUBLIC "-//W3C//DTD SVG 1.1//EN" "http://www.w3.org/Graphics/SVG/1.1/DTD/svg11.dtd">
<svg width="100%" height="100%" viewBox="0 0 512 512" version="1.1" xmlns="http://www.w3.org/2000/svg" xmlns:xlink="http://www.w3.org/1999/xlink" xml:space="preserve" xmlns:serif="http://www.serif.com/" style="fill-rule:evenodd;clip-rule:evenodd;stroke-linejoin:round;stroke-miterlimit:2;">
    <g transform="matrix(0.489617,0,0,0.486461,17.8074,22.2228)">
        <path d="M955.29,359.731L494.49,206.131C489.238,204.39 483.562,204.39 478.31,206.131L17.51,359.731C7.11,363.223 0.058,373.029 0.058,384C0.058,394.971 7.11,404.777 17.51,408.269L153.6,453.632L153.6,588.8C153.6,595.61 156.314,602.112 161.075,606.925C165.581,611.43 273.408,716.8 486.4,716.8C563.866,716.8 636.109,702.874 701.184,675.379C710.383,671.265 716.332,662.087 716.332,652.01C716.332,637.966 704.776,626.41 690.732,626.41C687.491,626.41 684.279,627.026 681.267,628.224C622.541,653.056 557.005,665.6 486.451,665.6C386.867,665.6 313.6,639.795 269.67,618.189C246.583,607.054 224.837,593.329 204.851,577.28L204.851,470.733L478.362,561.92C483.614,563.658 489.289,563.658 494.541,561.92L768.051,470.733L768.051,516.403C738.253,526.95 716.851,555.418 716.851,588.8C716.851,620.083 735.642,647.014 762.522,658.995L717.619,838.605C717.114,840.631 716.858,842.712 716.858,844.8C716.858,858.841 728.41,870.396 742.451,870.4L844.851,870.4C858.892,870.396 870.444,858.841 870.444,844.8C870.444,842.712 870.189,840.631 869.683,838.605L824.781,658.995C851.661,647.014 870.451,620.083 870.451,588.8C870.451,555.418 849.05,526.95 819.251,516.403L819.251,453.632L955.341,408.269C965.741,404.777 972.793,394.971 972.793,384C972.793,373.029 965.741,363.223 955.341,359.731L955.29,359.731ZM793.6,563.2C807.644,563.2 819.2,574.756 819.2,588.8C819.2,602.844 807.644,614.4 793.6,614.4C779.556,614.4 768,602.844 768,588.8C768,574.756 779.556,563.2 793.6,563.2ZM775.168,819.2L793.6,745.574L812.032,819.2L775.168,819.2ZM791.552,408.883L490.65,358.707C489.016,358.385 487.355,358.222 485.69,358.222C471.647,358.222 460.09,369.778 460.09,383.822C460.09,396.573 469.617,407.478 482.253,409.19L687.77,443.443L486.451,510.566L106.598,383.949L486.451,257.331L866.304,383.949L791.603,408.832L791.552,408.883Z" style="fill:rgb(55,65,73);fill-rule:nonzero;"/>
    </g>
</svg>
