<?xml version="1.0" encoding="UTF-8" standalone="no"?>
<!DOCTYPE svg PUBLIC "-//W3C//DTD SVG 1.1//EN" "http://www.w3.org/Graphics/SVG/1.1/DTD/svg11.dtd">
<svg width="100%" height="100%" viewBox="0 0 512 512" version="1.1" xmlns="http://www.w3.org/2000/svg" xmlns:xlink="http://www.w3.org/1999/xlink" xml:space="preserve" xmlns:serif="http://www.serif.com/" style="fill-rule:evenodd;clip-rule:evenodd;stroke-linejoin:round;stroke-miterlimit:2;">
    <g>
        <path d="M291.666,312.238L220.306,312.238C216.783,312.238 214.544,316 216.224,319.039C223.345,332 238.462,340.879 255.986,340.879C273.505,340.879 288.623,332 295.744,319.039C297.423,316 295.185,312.238 291.666,312.238Z" style="fill:rgb(55,65,73);fill-rule:nonzero;"/>
        <path d="M249.423,109.598C249.423,113.196 252.384,116.156 255.985,116.156C259.583,116.156 262.543,113.195 262.543,109.598C262.543,106 259.582,103.04 255.985,103.04C252.384,103.039 249.423,106 249.423,109.598Z" style="fill:rgb(0,47,102);fill-rule:nonzero;"/>
        <g transform="matrix(1,0,0,1,0,-27.1853)">
            <path d="M249.423,109.598C249.423,113.196 252.384,116.156 255.985,116.156C259.583,116.156 262.543,113.195 262.543,109.598C262.543,106 259.582,103.04 255.985,103.04C252.384,103.039 249.423,106 249.423,109.598Z" style="fill:rgb(169,14,19);fill-rule:nonzero;"/>
        </g>
        <g transform="matrix(1,0,0,1,0,-56.3124)">
            <path d="M249.423,109.598C249.423,113.196 252.384,116.156 255.985,116.156C259.583,116.156 262.543,113.195 262.543,109.598C262.543,106 259.582,103.04 255.985,103.04C252.384,103.039 249.423,106 249.423,109.598Z" style="fill:rgb(247,147,29);fill-rule:nonzero;"/>
        </g>
        <path d="M177.666,172.957C170.704,172.957 164.224,175.516 159.103,179.758L159.584,179.758C166.545,179.758 172.146,184.079 172.146,189.438C172.146,194.719 166.544,199.04 159.584,199.04C155.736,199.04 152.377,197.692 150.115,195.602C149.799,195.274 149.428,194.981 149.173,194.614C149.166,194.637 149.166,194.66 149.154,194.684C149.119,194.642 149.06,194.606 149.025,194.559C147.743,198.157 147.025,202.079 147.025,206.157C147.025,224.478 160.704,239.279 177.666,239.279C194.544,239.279 208.224,224.478 208.224,206.157C208.224,187.836 194.544,172.957 177.666,172.957ZM177.666,231.438C174.865,231.438 172.623,229.196 172.623,226.399C172.623,223.598 174.865,221.36 177.666,221.36C187.744,221.36 195.986,213.118 195.986,202.958C195.986,200.24 198.224,197.919 201.025,197.919C203.826,197.919 206.064,200.24 206.064,202.958C206.064,218.637 193.345,231.438 177.666,231.438Z" style="fill:rgb(55,65,73);fill-rule:nonzero;"/>
        <path d="M240.783,209.758C239.025,167.68 208.623,145.598 179.505,145.598C157.185,145.598 140.064,157.918 129.903,181.196C121.263,201.04 120.462,223.118 120.384,229.36C120.146,253.681 131.185,258.478 143.583,261.517C144.224,261.681 144.865,261.837 145.423,262.001C155.185,264.478 169.185,266.001 182.865,266.001C186.865,266.001 190.865,265.837 194.704,265.599C217.103,264.238 242.623,256.637 240.783,209.758ZM194.146,255.598C190.306,255.758 186.544,255.918 182.865,255.918C168.463,255.918 155.666,254.239 147.986,252.239C137.666,249.598 130.224,249.117 130.384,229.438C130.622,209.836 137.185,155.68 179.505,155.68C203.986,155.68 229.263,173.918 230.704,210.156C232.306,249.516 213.025,254.398 194.146,255.598Z" style="fill:rgb(55,65,73);fill-rule:nonzero;"/>
        <path d="M334.306,172.957C325.775,172.957 318.056,176.82 312.47,182.953C311.357,184.133 310.295,185.367 309.345,186.719C309.384,186.719 309.419,186.727 309.459,186.727C309.424,186.782 309.381,186.825 309.345,186.88C316.224,186.958 321.743,191.278 321.743,196.478C321.743,201.837 316.145,206.157 309.185,206.157C307.341,206.157 305.579,205.845 303.955,205.255C303.939,205.248 303.916,205.248 303.901,205.236L303.901,205.24C303.85,205.224 303.795,205.217 303.744,205.197C303.666,205.518 303.666,205.838 303.666,206.158C303.666,224.479 317.424,239.28 334.306,239.28C351.264,239.28 364.943,224.479 364.943,206.158C364.943,187.836 351.263,172.957 334.306,172.957ZM334.544,231.438C331.826,231.438 329.583,229.196 329.583,226.399C329.583,223.598 331.825,221.36 334.544,221.36C344.704,221.36 352.942,213.118 352.942,202.958C352.942,200.24 355.184,197.919 357.985,197.919C360.782,197.919 363.024,200.24 363.024,202.958C363.025,218.637 350.224,231.438 334.544,231.438Z" style="fill:rgb(55,65,73);fill-rule:nonzero;"/>
        <path d="M368.384,261.516C380.704,258.477 391.826,253.68 391.583,229.359C391.505,223.117 390.622,201.039 381.985,181.195C371.903,157.917 354.782,145.597 332.462,145.597C303.263,145.597 272.864,167.679 271.184,209.757C269.344,256.636 294.782,264.238 317.262,265.597C321.101,265.835 325.101,265.999 329.024,265.999C342.782,265.999 356.782,264.476 366.462,261.999C367.103,261.836 367.743,261.68 368.384,261.516ZM329.025,255.918C325.423,255.918 321.666,255.758 317.826,255.598C298.943,254.399 279.666,249.516 281.264,210.156C282.705,173.918 307.904,155.68 332.463,155.68C374.783,155.68 381.345,209.836 381.505,229.438C381.743,249.117 374.224,249.598 363.986,252.239C356.306,254.238 343.505,255.918 329.025,255.918Z" style="fill:rgb(55,65,73);fill-rule:nonzero;"/>
        <path d="M489.903,153.836C488.384,146 483.583,139.195 476.704,135.039C464.064,127.437 454.384,119.836 444.942,110.797C435.583,101.836 426.462,91.516 415.102,78.637C408.864,71.516 401.743,63.359 393.665,54.559C349.826,6.477 299.505,0 255.986,0C212.463,0 162.146,6.477 118.306,54.558C110.224,63.359 103.103,71.516 96.865,78.636C74.146,104.398 60.384,119.917 35.263,135.038C28.384,139.194 23.583,145.999 22.064,153.835C21.423,157.277 21.185,162.557 21.185,168.717C21.185,187.596 23.583,215.358 24.943,227.115C31.986,292.077 42.225,307.436 46.065,313.193L49.667,318.635L55.265,321.916C60.546,324.955 65.104,327.115 69.104,329.038C78.226,333.436 84.307,336.397 96.546,350.155C98.386,352.237 100.546,354.796 102.867,357.515C114.625,371.277 132.386,392.155 156.706,409.277C164.546,414.879 172.706,419.679 181.027,423.757C180.308,426.476 179.668,429.195 179.187,431.679C178.945,432.636 178.706,433.757 178.386,434.956C177.265,439.917 175.507,447.437 175.265,455.679C174.706,478.397 185.827,495.116 207.347,504.155C219.988,509.437 235.828,511.999 255.988,511.999C276.066,511.999 291.988,509.437 304.625,504.155C326.148,495.116 337.266,478.397 336.625,455.679C336.465,447.437 334.707,439.917 333.507,434.956C333.265,433.757 333.027,432.636 332.785,431.757C332.308,429.277 331.668,426.476 330.945,423.679C339.266,419.679 347.347,414.796 355.187,409.277C379.585,392.155 397.347,371.277 409.105,357.515C411.426,354.796 413.586,352.237 415.426,350.155C427.668,336.397 433.668,333.437 442.868,329.038C446.868,327.116 451.426,324.956 456.626,321.916L462.309,318.635L465.907,313.193C469.747,307.435 479.989,292.076 487.029,227.115C488.783,211.516 492.544,167.836 489.903,153.836ZM312.295,401.282C310.146,402.223 307.982,403.152 305.744,404C291.103,409.598 274.623,413.039 255.986,413.039C237.345,413.039 220.783,409.597 206.146,404C203.904,403.152 201.74,402.218 199.584,401.278C198.702,400.891 197.814,400.512 196.947,400.114C157.291,381.817 132.689,348.477 117.584,331.438C96.065,307.196 85.986,307.196 69.506,297.598C53.904,274.239 47.424,171.117 49.744,159.196C86.065,137.36 101.346,115.118 138.146,74.559C140.623,89.837 144.384,101.758 149.424,110.239C167.186,140.079 229.826,143.278 255.986,143.278C282.064,143.278 344.783,140.079 362.544,110.239C366.798,103.149 370.083,93.352 372.513,81.376C372.986,79.192 373.478,77.067 373.903,74.723C410.724,115.149 425.931,137.453 462.224,159.196C464.544,171.118 458.064,274.239 442.462,297.598C425.985,307.196 415.903,307.196 394.384,331.438C379.208,348.548 354.602,381.824 314.95,400.11C314.079,400.512 313.185,400.894 312.295,401.282ZM293.743,478.156C284.782,481.918 272.064,483.836 255.985,483.836C239.903,483.836 227.184,481.918 218.223,478.156C207.422,473.68 203.184,467.359 203.422,456.398C203.582,451.039 204.864,445.68 205.824,441.359C206.222,439.757 206.542,438.32 206.781,437.117C206.941,436.156 207.183,435.195 207.422,434.156C223.101,438.797 239.262,441.195 255.984,441.195C265.706,441.195 275.25,440.289 284.617,438.699C291.343,437.664 298.035,436.375 304.667,434.734C304.859,435.547 305.054,436.344 305.183,437.116C305.421,438.319 305.741,439.757 306.144,441.358C307.101,445.679 308.382,451.038 308.461,456.397C308.783,467.359 304.544,473.68 293.743,478.156ZM295.97,31.152L293.505,37.359C293.103,39.757 294.384,42.156 296.544,43.277L335.345,63.515C337.583,64.659 340.025,64.073 341.728,62.577C341.751,62.557 341.774,62.538 341.798,62.518C342.798,61.612 343.599,60.468 343.743,58.956L342.896,52.198L342.49,48.225C348.771,52.053 355.06,56.588 361.185,62.155C359.185,80.476 355.505,94.476 350.463,102.956C338.943,122.319 292.385,129.194 255.986,129.194C219.584,129.194 173.025,122.319 161.505,102.956C156.384,94.476 152.783,80.398 150.704,62.078C156.865,56.558 163.185,52 169.583,48.078L168.224,58.956C168.372,60.472 169.177,61.62 170.181,62.526C170.197,62.538 170.212,62.553 170.224,62.565C171.927,64.069 174.38,64.663 176.622,63.515L215.423,43.277C217.583,42.155 218.782,39.757 218.462,37.359L216.34,32.012L216.012,31.114C229.762,28.637 243.27,28.156 255.985,28.156C267.532,28.156 279.755,28.633 292.2,30.562C293.463,30.77 294.697,30.906 295.97,31.152Z" style="fill:rgb(55,65,73);fill-rule:nonzero;"/>
    </g>
</svg>
