<?xml version="1.0" encoding="UTF-8" standalone="no"?>
<!DOCTYPE svg PUBLIC "-//W3C//DTD SVG 1.1//EN" "http://www.w3.org/Graphics/SVG/1.1/DTD/svg11.dtd">
<svg width="100%" height="100%" viewBox="0 0 2000 500" version="1.1" xmlns="http://www.w3.org/2000/svg" xmlns:xlink="http://www.w3.org/1999/xlink" xml:space="preserve" xmlns:serif="http://www.serif.com/" style="fill-rule:evenodd;clip-rule:evenodd;stroke-linejoin:round;stroke-miterlimit:2;">
    <g id="Layer-1" serif:id="Layer 1" transform="matrix(3.99885,0,0,3.99885,74.4459,-388.041)">
        <g transform="matrix(1.07402,0,0,1.07402,-17.133,-287.89)">
            <path d="M428.194,403.368C371.645,417.575 338.513,345.584 310.21,401.515C340.31,378.772 390.064,421.843 428.194,403.368" style="fill:rgb(27,50,95);"/>
        </g>
        <g transform="matrix(1.07402,0,0,1.07402,-17.133,-279.462)">
            <path d="M428.811,379.46C378.854,407.181 307.795,350.653 308.975,399.789C329.247,381.369 405.58,408.927 428.811,379.46" style="fill:rgb(166,29,33);"/>
        </g>
        <g transform="matrix(1.07402,0,0,1.07402,-17.133,-279.421)">
            <path d="M402.362,380.714C320.038,359.824 308.571,373.908 308.967,399.718C308.967,399.718 313.916,360.442 402.362,380.714" style="fill:rgb(244,146,31);"/>
        </g>
        <g transform="matrix(1.07402,0,0,1.07402,-17.133,-197.665)">
            <path d="M38.221,347.113L38.221,316.789C38.208,315.787 36.961,314.544 35.166,314.544L34.299,314.551L34.1,312.724L38.466,312.716L43.601,312.716L43.601,347.113C43.601,358.904 50.685,365.797 60.313,365.797C70.182,365.797 77.342,358.9 77.342,347.113L77.342,312.716L82.722,312.716L82.722,347.113C82.722,363.997 70.83,370.704 60.313,370.704C50.03,370.704 38.221,363.994 38.221,347.113" style="fill:rgb(89,89,89);"/>
        </g>
        <g transform="matrix(1.07402,0,0,1.07402,-17.133,-198.767)">
            <path d="M216.619,355.473C216.619,365.582 207.953,371.729 199.022,371.729C194.058,371.729 189.531,370.172 185.194,367.918L185.807,362.226C190.242,365.134 193.66,366.901 199.022,366.901C205.766,366.901 211.082,362.419 211.082,355.237C211.082,350.083 206.831,347.414 202.83,345.386C195.321,341.58 184.579,338.586 184.579,327.947C184.579,318.784 192.459,312.716 201.861,312.716C206.202,312.716 210.417,313.753 214.35,315.574L213.738,320.915C209.935,318.943 206.489,317.623 202.176,317.623C196.01,317.623 190.118,321.045 190.118,327.632C190.118,332.687 194.448,335.177 198.365,337.08C206.521,341.043 216.619,343.994 216.619,355.473" style="fill:rgb(89,89,89);"/>
        </g>
        <g transform="matrix(1.07402,0,0,1.07402,-17.133,-198.767)">
            <path d="M141.599,313.742L146.734,313.742L146.832,370.704L141.019,370.704L105.897,322.391L105.897,370.704L100.517,370.704L100.517,313.742L106.014,313.742L141.45,362.915L141.355,317.814C141.341,316.813 140.095,315.569 138.3,315.569L137.432,315.576L137.233,313.749L141.599,313.742Z" style="fill:rgb(89,89,89);"/>
        </g>
        <g transform="matrix(1.07402,0,0,1.07402,-17.133,-198.767)">
            <path d="M164.636,370.704L164.636,320.153L164.486,317.822C164.472,316.82 163.225,315.569 161.431,315.569L160.563,315.576L160.364,313.749L164.731,313.742L169.861,313.742L169.974,320.144L169.937,370.704L164.636,370.704Z" style="fill:rgb(89,89,89);"/>
        </g>
        <g transform="matrix(1.07402,0,0,1.07402,-17.133,-198.765)">
            <path d="M277.383,368.839L278.285,368.832L278.443,370.659L275.75,370.663L270.413,370.704L263.062,353.351L235.308,353.351L227.814,370.703L222.152,370.703L247.053,313.741L251.792,313.741L274.76,367.537C275.333,368.142 276.366,368.839 277.383,368.839ZM249.263,320.53L237.408,348.602L261.12,348.602L249.263,320.53Z" style="fill:rgb(89,89,89);"/>
        </g>
        <g transform="matrix(1.07402,0,0,1.07402,-17.133,-145.752)">
            <path d="M312.458,321.446C314.951,321.446 316.4,319.685 316.4,317.52C316.4,315.385 314.951,313.639 312.458,313.639C309.995,313.639 308.546,315.369 308.546,317.52C308.546,319.685 309.995,321.446 312.458,321.446ZM312.458,320.34C311.008,320.34 310.073,319.109 310.073,317.52C310.073,315.977 311.008,314.746 312.458,314.746C313.969,314.746 314.888,315.977 314.888,317.52C314.888,319.109 313.969,320.34 312.458,320.34" style="fill:rgb(89,89,89);"/>
        </g>
        <g transform="matrix(1.07402,0,0,1.07402,-17.133,-149.735)">
            <path d="M318.471,325.014L319.905,325.014L319.905,318.61L321.447,318.61L321.447,317.504L319.905,317.504L319.905,316.849C319.905,315.743 320.138,314.901 321.245,314.901C321.634,314.901 321.884,314.964 322.257,315.104L322.351,314.013C321.93,313.857 321.369,313.779 320.918,313.779C319.188,313.779 318.471,314.933 318.471,316.74L318.471,317.504L317.178,317.504L317.178,318.61L318.471,318.61L318.471,325.014Z" style="fill:rgb(89,89,89);"/>
        </g>
        <g transform="matrix(1.07402,0,0,1.07402,-17.133,-145.752)">
            <path d="M329.689,313.64C328.161,313.639 326.868,314.403 326.868,315.79C326.868,318.158 330.748,317.675 330.748,319.342C330.748,319.997 330.032,320.418 329.205,320.418C328.395,320.418 327.787,320.231 327.009,319.763L326.915,320.901C327.632,321.337 328.473,321.446 329.361,321.446C330.701,321.446 332.135,320.652 332.135,319.296C332.135,316.694 328.286,317.083 328.286,315.759C328.286,314.98 328.972,314.652 329.798,314.652C330.483,314.652 331.075,314.84 331.777,315.167L331.87,314.076C331.044,313.749 330.359,313.639 329.689,313.64" style="fill:rgb(89,89,89);"/>
        </g>
        <g transform="matrix(1.07402,0,0,1.07402,-17.133,-145.752)">
            <path d="M337.261,321.446C339.754,321.446 341.203,319.685 341.203,317.52C341.203,315.385 339.754,313.639 337.261,313.639C334.799,313.639 333.35,315.369 333.35,317.52C333.35,319.685 334.799,321.446 337.261,321.446ZM337.261,320.34C335.812,320.34 334.876,319.109 334.876,317.52C334.876,315.977 335.811,314.746 337.261,314.746C338.772,314.746 339.691,315.977 339.691,317.52C339.692,319.109 338.772,320.34 337.261,320.34" style="fill:rgb(89,89,89);"/>
        </g>
        <g transform="matrix(1.07402,0,0,1.07402,-17.133,-145.585)">
            <path d="M349.414,313.639L347.98,313.639L347.98,318.61C347.513,319.467 346.952,320.23 345.892,320.23C344.739,320.23 344.256,319.374 344.256,318.034L344.256,313.639L342.822,313.639L342.822,318.454C342.822,320.153 343.757,321.29 345.502,321.29C346.827,321.29 347.435,320.745 348.011,319.872L348.011,321.15L349.414,321.15L349.414,313.639Z" style="fill:rgb(89,89,89);"/>
        </g>
        <g transform="matrix(1.07402,0,0,1.07402,-17.133,-148.162)">
            <path d="M352.093,314.559L352.093,316.039L350.784,316.039L350.784,317.146L352.093,317.146L352.093,321.493C352.093,322.911 352.872,323.69 354.103,323.69C354.758,323.69 355.131,323.566 355.693,323.348L355.599,322.257C355.163,322.444 354.913,322.553 354.461,322.553C353.667,322.553 353.526,322.116 353.526,321.197L353.526,317.146L355.256,317.146L355.256,316.039L353.526,316.039L353.526,313.639L353.059,313.639L352.093,314.559Z" style="fill:rgb(89,89,89);"/>
        </g>
        <g transform="matrix(1.07402,0,0,1.07402,-17.133,-149.651)">
            <path d="M357.001,324.936L358.435,324.936L358.435,319.966C358.902,319.109 359.463,318.345 360.523,318.345C361.676,318.345 362.159,319.202 362.159,320.542L362.159,324.936L363.593,324.936L363.593,320.121C363.593,318.423 362.658,317.27 360.912,317.27C359.603,317.27 358.995,317.831 358.435,318.703L358.435,313.779L357.001,313.779L357.001,324.936Z" style="fill:rgb(89,89,89);"/>
        </g>
        <g transform="matrix(1.07402,0,0,1.07402,-17.133,-145.752)">
            <path d="M376.151,321.306C376.042,320.979 375.98,320.433 375.98,319.95L375.98,316.054C375.98,315.244 375.746,314.543 375.31,314.216C374.765,313.78 373.954,313.639 373.082,313.639C372.116,313.639 371.461,313.842 370.542,314.278L370.604,315.572C371.57,314.964 372.115,314.746 372.972,314.746C374.016,314.746 374.546,315.089 374.546,316.117C374.547,316.164 374.546,316.662 374.546,316.709C372.116,316.709 369.887,317.348 369.887,319.358C369.887,320.324 370.542,321.446 372.334,321.446C373.362,321.446 374.172,320.932 374.718,320.169L374.718,321.306L376.151,321.306ZM374.547,317.52L374.547,319.249C374.063,319.904 373.58,320.496 372.661,320.496C371.835,320.496 371.352,320.059 371.352,319.296C371.352,318.002 372.817,317.52 374.547,317.52" style="fill:rgb(89,89,89);"/>
        </g>
        <g transform="matrix(1.07402,0,0,1.07402,-17.133,-149.735)">
            <path d="M378.412,325.014L379.845,325.014L379.845,318.61L381.388,318.61L381.388,317.504L379.845,317.504L379.845,316.849C379.845,315.743 380.079,314.901 381.185,314.901C381.575,314.901 381.824,314.964 382.198,315.104L382.292,314.013C381.871,313.857 381.31,313.779 380.858,313.779C379.128,313.779 378.412,314.933 378.412,316.74L378.412,317.504L377.118,317.504L377.118,318.61L378.412,318.61L378.412,325.014Z" style="fill:rgb(89,89,89);"/>
        </g>
        <g transform="matrix(1.07402,0,0,1.07402,-17.133,-145.903)">
            <path d="M383.863,315.525L383.863,313.935L382.57,313.935L382.57,321.446L384.003,321.446L384.003,317.301C384.206,316.086 384.923,315.042 385.92,315.042C386.263,315.042 386.606,315.151 387.026,315.478L387.323,314.185C386.871,313.873 386.559,313.779 386.107,313.779C385.219,313.779 384.455,314.403 383.863,315.525" style="fill:rgb(89,89,89);"/>
        </g>
        <g transform="matrix(1.07402,0,0,1.07402,-17.133,-149.651)">
            <path d="M388.458,313.779L388.458,315.447L389.892,315.447L389.892,313.779L388.458,313.779ZM389.892,324.936L389.892,317.426L388.458,317.426L388.458,324.936L389.892,324.936Z" style="fill:rgb(89,89,89);"/>
        </g>
        <g transform="matrix(1.07402,0,0,1.07402,-17.133,-145.752)">
            <path d="M395.391,321.446C396.139,321.446 396.731,321.368 397.494,321.104L397.463,319.966C396.778,320.231 396.248,320.34 395.64,320.34C394.051,320.34 393.085,319.202 393.085,317.582C393.085,315.914 394.051,314.746 395.625,314.746C396.217,314.746 396.746,314.84 397.385,315.135L397.416,313.951C396.856,313.78 396.232,313.639 395.422,313.639C393.1,313.639 391.573,315.307 391.573,317.613C391.573,319.81 393.007,321.446 395.391,321.446" style="fill:rgb(89,89,89);"/>
        </g>
        <g transform="matrix(1.07402,0,0,1.07402,-17.133,-145.752)">
            <path d="M404.897,321.306C404.788,320.979 404.725,320.433 404.725,319.95L404.725,316.054C404.725,315.244 404.492,314.543 404.055,314.216C403.51,313.78 402.699,313.639 401.827,313.639C400.861,313.639 400.207,313.842 399.287,314.278L399.349,315.572C400.316,314.964 400.861,314.746 401.718,314.746C402.762,314.746 403.292,315.089 403.292,316.117L403.292,316.709C400.861,316.709 398.633,317.348 398.633,319.358C398.633,320.324 399.287,321.446 401.079,321.446C402.108,321.446 402.918,320.932 403.463,320.169L403.463,321.306L404.897,321.306ZM403.292,317.52L403.292,319.249C402.809,319.904 402.325,320.496 401.406,320.496C400.58,320.496 400.097,320.059 400.097,319.296C400.097,318.002 401.562,317.52 403.292,317.52" style="fill:rgb(89,89,89);"/>
        </g>
        <g transform="matrix(1.07402,0,0,1.07402,-17.133,-179.056)">
            <path d="M315.512,329.221L314.078,329.221L314.078,334.192C313.611,335.049 313.05,335.813 311.99,335.813C310.837,335.813 310.354,334.956 310.354,333.616L310.354,329.221L308.92,329.221L308.92,334.036C308.92,335.735 309.855,336.872 311.6,336.872C312.925,336.872 313.532,336.327 314.109,335.454L314.109,336.732L315.512,336.732L315.512,329.221Z" style="fill:rgb(89,89,89);"/>
        </g>
        <g transform="matrix(1.07402,0,0,1.07402,-17.133,-179.374)">
            <path d="M317.63,337.028L319.064,337.028L319.064,332.057C319.531,331.2 320.092,330.437 321.152,330.437C322.305,330.437 322.788,331.294 322.788,332.634L322.788,337.028L324.221,337.028L324.221,332.213C324.221,330.515 323.286,329.361 321.541,329.361C320.232,329.361 319.624,329.923 319.033,330.795L319.033,329.518L317.63,329.518L317.63,337.028Z" style="fill:rgb(89,89,89);"/>
        </g>
        <g transform="matrix(1.07402,0,0,1.07402,-17.133,-183.122)">
            <path d="M326.262,329.361L326.262,331.029L327.696,331.029L327.696,329.361L326.262,329.361ZM327.696,340.519L327.696,333.008L326.262,333.008L326.262,340.519L327.696,340.519Z" style="fill:rgb(89,89,89);"/>
        </g>
        <g transform="matrix(1.07402,0,0,1.07402,-17.133,-179.206)">
            <path d="M328.785,329.361L331.715,336.872L333.226,336.872L336.156,329.361L334.644,329.361L332.478,335.329L330.312,329.361L328.785,329.361Z" style="fill:rgb(89,89,89);"/>
        </g>
        <g transform="matrix(1.07402,0,0,1.07402,-17.133,-179.223)">
            <path d="M343.354,335.252C342.45,335.704 341.733,335.984 340.798,335.984C339.303,335.984 338.321,334.816 338.29,333.288L343.728,333.288L343.728,332.759C343.728,330.655 342.357,329.221 340.394,329.221C338.227,329.221 336.81,330.811 336.81,333.055C336.81,335.424 338.119,337.028 340.643,337.028C341.718,337.028 342.528,336.795 343.479,336.327L343.354,335.252ZM338.352,332.369C338.446,331.247 339.162,330.266 340.378,330.266C341.672,330.266 342.216,331.247 342.294,332.369L338.352,332.369Z" style="fill:rgb(89,89,89);"/>
        </g>
        <g transform="matrix(1.07402,0,0,1.07402,-17.133,-179.374)">
            <path d="M346.686,331.107L346.686,329.518L345.393,329.518L345.393,337.028L346.827,337.028L346.827,332.883C347.029,331.668 347.746,330.624 348.743,330.624C349.086,330.624 349.429,330.733 349.849,331.06L350.146,329.767C349.694,329.455 349.382,329.361 348.93,329.361C348.042,329.361 347.279,329.985 346.686,331.107" style="fill:rgb(89,89,89);"/>
        </g>
        <g transform="matrix(1.07402,0,0,1.07402,-17.133,-179.223)">
            <path d="M353.65,329.221C352.122,329.221 350.829,329.985 350.829,331.372C350.829,333.74 354.709,333.257 354.709,334.925C354.709,335.579 353.992,336 353.166,336C352.356,336 351.748,335.813 350.969,335.345L350.876,336.483C351.592,336.919 352.434,337.028 353.322,337.028C354.662,337.028 356.096,336.233 356.096,334.878C356.096,332.276 352.247,332.665 352.247,331.341C352.247,330.562 352.933,330.234 353.758,330.234C354.444,330.234 355.036,330.422 355.737,330.749L355.831,329.658C355.005,329.331 354.319,329.221 353.65,329.221" style="fill:rgb(89,89,89);"/>
        </g>
        <g transform="matrix(1.07402,0,0,1.07402,-17.133,-183.122)">
            <path d="M357.746,329.361L357.746,331.029L359.18,331.029L359.18,329.361L357.746,329.361ZM359.18,340.519L359.18,333.008L357.746,333.008L357.746,340.519L359.18,340.519Z" style="fill:rgb(89,89,89);"/>
        </g>
        <g transform="matrix(1.07402,0,0,1.07402,-17.133,-181.633)">
            <path d="M361.859,330.141L361.859,331.621L360.55,331.621L360.55,332.727L361.859,332.727L361.859,337.075C361.859,338.493 362.638,339.272 363.869,339.272C364.524,339.272 364.898,339.147 365.459,338.929L365.365,337.839C364.929,338.025 364.679,338.135 364.228,338.135C363.433,338.135 363.293,337.698 363.293,336.779L363.293,332.727L365.022,332.727L365.022,331.621L363.293,331.621L363.293,329.221L362.825,329.221L361.859,330.141Z" style="fill:rgb(89,89,89);"/>
        </g>
        <g transform="matrix(1.07402,0,0,1.07402,-17.133,-175.625)">
            <path d="M368.7,333.21L368.341,334.052C367.92,335.018 367.531,335.75 366.876,335.75C366.487,335.75 366.066,335.734 365.77,335.594L365.677,336.7C366.176,336.856 366.814,336.872 367.188,336.872C368.512,336.872 369.261,335.594 369.806,334.27L373.109,326.027L371.598,326.027L369.432,331.792L367.266,326.027L365.739,326.027L368.7,333.21Z" style="fill:rgb(89,89,89);"/>
        </g>
        <g transform="matrix(1.07402,0,0,1.07402,-17.133,-218.341)">
            <rect x="296.609" y="313.751" width="1.608" height="75.169" style="fill:rgb(89,89,89);"/>
        </g>
    </g>
</svg>
